# xmcd
#
# Track frame offsets: 
#        150
#        32803
#        58664
#        85516
#        112607
#        135302
#        158400
#        179357
#        200692
#        227959
#        250479
#        269087
#        283704
#
# Disc length: 4085 seconds
#
# Revision: 0
# Processed by: cddbd v1.5.2PL0 Copyright (c) Steve Scherf et al.
# Submitted via: ExactAudioCopyFreeDBPlugin 1.0
#
DISCID=b00ff30d
DTITLE=มาลีฮวนน่า - บันทึกการแสดงสด คอนเสิร์ต ระบำสยาม 1
DYEAR=1900
DGENRE=Thai Country
TTITLE0=ชุ่มฉ่ำในดวงใจ
TTITLE1=สมิหลา รูสมิแล
TTITLE2=แสงจันทร์
TTITLE3=ลมเพ ลมพัด
TTITLE4=คนเช็ดเงา
TTITLE5=ชะตากรรม
TTITLE6=หัวใจละเหี่ย
TTITLE7=สำนึก
TTITLE8=ฝุ่น
TTITLE9=ลานนม ลมเน
TTITLE10=หมาหยอกไก่
TTITLE11=รักสาวพรานนก
TTITLE12=สะพานไม้หมาก
EXTD=
EXTT0=
EXTT1=
EXTT2=
EXTT3=
EXTT4=
EXTT5=
EXTT6=
EXTT7=
EXTT8=
EXTT9=
EXTT10=
EXTT11=
EXTT12=
PLAYORDER=
